<svg xmlns="http://www.w3.org/2000/svg" width="66.501" height="66.29"><g fill="#f94834"><path d="m42.188.001 6.506 17.875-8.938 3.253-6.505-17.875zM33.25 3.253l-6.506 17.875-8.937-3.253L24.313 0zM33.25 63.037l6.506-17.875 8.937 3.253-6.506 17.875zM24.313 66.29l-6.506-17.875 8.938-3.253 6.505 17.875zM48.515 17.959l17.986 6.193-3.097 8.993-17.985-6.193zM21.083 26.952 3.097 33.145.001 24.152l17.986-6.193zM45.418 39.338l17.986-6.193 3.096 8.993-17.986 6.193zM17.986 48.332 0 42.139l3.097-8.993 17.985 6.193z"/></g></svg>